HIERARCHY
ROOT Hips
{
    OFFSET 0.000000 0.000000 0.000000
    CHANNELS 6 Xposition Yposition Zposition Zrotation Xrotation Yrotation
    JOINT Spine
    {
        OFFSET -0.000000 7.246840 0.000000
        CHANNELS 3 Zrotation Xrotation Yrotation
        JOINT Spine1
        {
            OFFSET -0.000000 20.289354 0.000000
            CHANNELS 3 Zrotation Xrotation Yrotation
            JOINT Neck
            {
                OFFSET -0.000000 20.206032 1.836912
                CHANNELS 3 Zrotation Xrotation Yrotation
                JOINT Head
                {
                    OFFSET -0.000000 12.372654 -1.767522
                    CHANNELS 3 Zrotation Xrotation Yrotation
                    End Site
                    {
                        OFFSET -0.000000 22.094025 0.000000
                    }
                }
            }
            JOINT LeftShoulder
            {
                OFFSET 3.465871 17.201674 -0.568930
                CHANNELS 3 Zrotation Xrotation Yrotation
                JOINT LeftArm
                {
                    OFFSET 14.070313 0.000000 0.000000
                    CHANNELS 3 Zrotation Xrotation Yrotation
                    JOINT LeftForeArm
                    {
                        OFFSET 26.549477 0.000000 0.000000
                        CHANNELS 3 Zrotation Xrotation Yrotation
                        JOINT LeftHand
                        {
                            OFFSET 18.880413 0.000000 0.000000
                            CHANNELS 3 Zrotation Xrotation Yrotation
                            End Site
                            {
                                OFFSET 13.256415 0.000000 0.000000
                            }
                        }
                    }
                }
            }
            JOINT RightShoulder
            {
                OFFSET -3.526370 17.201674 -0.568930
                CHANNELS 3 Zrotation Xrotation Yrotation
                JOINT RightArm
                {
                    OFFSET -14.070313 0.000000 0.000000
                    CHANNELS 3 Zrotation Xrotation Yrotation
                    JOINT RightForeArm
                    {
                        OFFSET -26.549477 0.000000 0.000000
                        CHANNELS 3 Zrotation Xrotation Yrotation
                        JOINT RightHand
                        {
                            OFFSET -18.880413 0.000000 0.000000
                            CHANNELS 3 Zrotation Xrotation Yrotation
                            End Site
                            {
                                OFFSET -13.256415 0.000000 0.000000
                            }
                        }
                    }
                }
            }
        }
    }
    JOINT LeftUpLeg
    {
        OFFSET 8.837609 0.000000 0.000000
        CHANNELS 3 Zrotation Xrotation Yrotation
        JOINT LeftLeg
        {
            OFFSET -0.000000 -41.345005 0.000000
            CHANNELS 3 Zrotation Xrotation Yrotation
            JOINT LeftFoot
            {
                OFFSET -0.000000 -35.500874 0.000000
                CHANNELS 3 Zrotation Xrotation Yrotation
                JOINT LeftToeBase
                {
                    OFFSET -0.000000 -5.744446 13.256415
                    CHANNELS 3 Zrotation Xrotation Yrotation
                    End Site
                    {
                        OFFSET -0.000000 0.000000 3.535044
                    }
                }
            }
        }
    }
    JOINT RightUpLeg
    {
        OFFSET -8.837609 0.000000 0.000000
        CHANNELS 3 Zrotation Xrotation Yrotation
        JOINT RightLeg
        {
            OFFSET -0.000000 -41.345005 0.000000
            CHANNELS 3 Zrotation Xrotation Yrotation
            JOINT RightFoot
            {
                OFFSET -0.000000 -35.500874 0.000000
                CHANNELS 3 Zrotation Xrotation Yrotation
                JOINT RightToeBase
                {
                    OFFSET -0.000000 -5.744446 13.256415
                    CHANNELS 3 Zrotation Xrotation Yrotation
                    End Site
                    {
                        OFFSET -0.000000 0.000000 3.535044
                    }
                }
            }
        }
    }
}
MOTION
Frames:    8
Frame Time:    0.010000
-2.576121    82.615364    -73.110352    3.572240    3.299287    -2.678865    -2.538232    -14.082854    -0.270455    -3.256162    2.573499    0.117185    2.532737    34.634838    -0.785221    2.153847    -12.640935    0.186866    19.098186    1.263883    5.435339    0.000000    0.000000    0.000000    -69.566818    11.255219    -15.811397    17.436565    1.247678    6.555377    -15.970671    0.812856    11.992598    16.652967    2.573747    9.392016    2.573608    -0.368796    -5.699744    -2.500471    -0.610769    16.831738    -1.503888    5.863529    -3.058250    -2.180661    -8.745913    -4.448419    5.694363    2.164665    0.240187    0.208034    0.302639    -0.290708    -9.559466    4.075220    8.822319    9.008262    -11.414181    3.075556    -2.422287    2.408867    -4.469485    0.369488    -4.341386    -0.695897    
-2.570334    82.607231    -73.102966    3.609845    3.302422    -2.743253    -2.498976    -14.120095    -0.225614    -3.360076    2.589985    0.159640    2.689329    34.765770    -0.841452    1.969263    -12.890100    0.118900    19.113804    1.243937    5.429495    0.000000    0.000000    0.000000    -69.653473    11.180007    -15.774805    17.637066    1.183224    6.504466    -15.962712    0.805906    12.004419    16.642441    2.585139    9.365939    2.568032    -0.395442    -5.722820    -2.546883    -0.642917    16.781668    -1.532489    5.886833    -3.091107    -2.197584    -8.784128    -4.424568    5.679960    2.169381    0.311862    0.241731    0.345297    -0.337710    -9.621443    4.054588    8.645251    9.077777    -11.380486    3.359516    -2.394368    2.367242    -4.520448    0.381077    -4.236470    -0.716834    
-2.565425    82.603302    -73.096176    3.624092    3.305293    -2.812958    -2.451792    -14.155569    -0.182923    -3.423496    2.611909    0.199471    2.698172    34.731762    -0.851023    1.964567    -12.863491    0.107968    19.096035    1.201125    5.438349    0.000000    0.000000    0.000000    -69.734695    11.114097    -15.727811    17.850025    1.127713    6.393190    -15.981133    0.760869    12.008179    16.648991    2.665842    9.344190    2.542276    -0.464481    -5.732441    -2.534513    -0.709965    16.727226    -1.543913    5.905635    -3.118171    -2.198887    -8.811366    -4.393156    5.684867    2.177352    0.339973    0.224271    0.337822    -0.313332    -9.655039    4.026452    8.625999    9.144855    -11.341159    3.346498    -2.451780    2.394092    -4.378211    0.409700    -4.248492    -0.770784    
-2.559251    82.601990    -73.090935    3.631130    3.295722    -2.885881    -2.393395    -14.158161    -0.139941    -3.497420    2.603831    0.236813    2.647047    34.686546    -0.842659    2.064505    -12.786987    0.129758    19.092197    1.172311    5.448679    0.000000    0.000000    0.000000    -69.884285    11.003225    -15.697750    18.295912    0.990283    6.149449    -15.987256    0.767181    12.009819    16.652763    2.678962    9.340017    2.527008    -0.526686    -5.719110    -2.551995    -0.774605    16.678780    -1.549718    5.928612    -3.185254    -2.211760    -8.824595    -4.279449    5.703231    2.177191    0.372288    0.225343    0.356131    -0.314796    -9.677560    3.993981    8.586786    9.172427    -11.292239    3.490041    -2.447776    2.372545    -4.430708    0.378325    -4.139283    -0.710842    
-2.555298    82.602699    -73.086487    3.633146    3.274547    -2.956580    -2.351920    -14.143968    -0.106246    -3.537545    2.596522    0.266015    2.668272    34.653946    -0.843038    2.044133    -12.740578    0.126443    19.070221    1.179405    5.451048    0.000000    0.000000    0.000000    -69.957924    10.938700    -15.667686    18.392841    0.916969    6.026142    -15.983761    0.766561    12.004838    16.643869    2.662214    9.344703    2.493515    -0.577424    -5.695382    -2.477275    -0.817021    16.699709    -1.556391    5.960097    -3.254449    -2.192486    -8.828079    -4.255643    5.697784    2.180533    0.473182    0.231093    0.365143    -0.322811    -9.690622    3.962930    8.611570    9.210358    -11.212073    3.499596    -2.456646    2.375000    -4.371575    0.394520    -4.140882    -0.741284    
-2.550245    82.606277    -73.084000    3.627406    3.254357    -3.018356    -2.306988    -14.130030    -0.077068    -3.573330    2.593810    0.290142    2.673245    34.642326    -0.845445    2.053456    -12.724314    0.126686    19.066725    1.174204    5.460916    0.000000    0.000000    0.000000    -70.043777    10.917382    -15.643785    18.399847    0.889486    5.988760    -15.980452    0.760210    11.995311    16.643410    2.629344    9.350447    2.468212    -0.600536    -5.652469    -2.396643    -0.830408    16.696213    -1.571109    5.984271    -3.305927    -2.169262    -8.823703    -4.106657    5.693161    2.173732    0.478088    0.250275    0.364723    -0.349607    -9.695495    3.928674    8.626264    9.217015    -11.126714    3.594788    -2.487130    2.370003    -4.431088    0.381330    -4.101535    -0.716169    
-2.546431    82.613075    -73.085060    3.604594    3.251158    -3.072772    -2.264249    -14.129907    -0.055972    -3.579948    2.589763    0.305882    2.712440    34.623905    -0.854484    1.998209    -12.692359    0.109458    19.059959    1.209991    5.454383    0.000000    0.000000    0.000000    -70.131149    10.917355    -15.634323    18.369041    0.874337    5.979860    -15.975293    0.750819    11.990962    16.627846    2.632791    9.356011    2.461543    -0.599868    -5.612712    -2.329390    -0.821306    16.704016    -1.552951    5.971472    -3.378274    -2.160311    -8.785567    -4.055104    5.714230    2.158795    0.551023    0.240926    0.361801    -0.336552    -9.671666    3.877196    8.623811    9.242129    -11.036099    3.570407    -2.499647    2.343360    -4.361069    0.377103    -4.062829    -0.707908    
-2.540948    82.619583    -73.080887    3.593944    3.228071    -3.104111    -2.240602    -14.117175    -0.048904    -3.590360    2.596479    0.310209    2.701154    34.599892    -0.844178    2.038029    -12.663718    0.126910    19.047705    1.215201    5.458142    0.000000    0.000000    0.000000    -70.173393    10.971769    -15.628639    18.201967    0.930964    6.074821    -15.956510    0.747801    11.982892    16.607794    2.630188    9.358776    2.449054    -0.567083    -5.533305    -2.225604    -0.775082    16.682320    -1.689115    6.052695    -2.939680    -1.956593    -8.899135    -3.977952    5.629104    2.243575    0.135759    0.225089    0.212099    -0.314710    -9.662508    3.861272    8.639228    9.241879    -10.960621    3.570165    -2.421101    2.278953    -4.355263    0.413511    -3.986972    -0.775562    
